<svg width="77" height="89" viewBox="0 0 77 89" fill="none" xmlns="http://www.w3.org/2000/svg">
<g clip-path="url(#clip0_1_2)">
<path fill-rule="evenodd" clip-rule="evenodd" d="M25.375 2.91643C33.4968 -0.972193 43.5032 -0.972092 51.625 2.91643L70.8413 12.1167C73.3264 13.3066 75.5195 14.8051 77.3667 16.5349H317.633C319.48 14.8051 321.674 13.3066 324.159 12.1167L343.375 2.91643C351.497 -0.972193 361.503 -0.972092 369.625 2.91643L388.841 12.1167C391.326 13.3066 393.52 14.8051 395.367 16.5349H627.633C629.48 14.8051 631.674 13.3066 634.159 12.1167L653.375 2.91643C661.497 -0.972193 671.503 -0.972092 679.625 2.91643L698.841 12.1167C701.327 13.3069 703.521 14.806 705.368 16.5364C725.633 16.7003 742 30.374 742 47.2179V87.7546C742 98.8003 750.954 107.755 762 107.755H1149C1182.14 107.755 1209 130.031 1209 157.511V566.244C1209 593.724 1182.14 616 1149 616H-651C-684.137 616 -711 593.724 -711 566.244V157.511C-711 130.031 -684.137 107.755 -651 107.755H-266C-254.954 107.755 -246 98.8003 -246 87.7546V47.2179C-246 30.2721 -229.435 16.5349 -209 16.5349H-0.366699C1.48047 14.8051 3.67358 13.3066 6.15869 12.1167L25.375 2.91643Z" fill="#FAFAFA"/>
<rect width="108" height="58" transform="translate(-12 31)" fill="white"/>
<path d="M28.375 16.8457C34.6404 13.2284 42.3596 13.2284 48.625 16.8457L63.449 25.4043C69.7144 29.0216 73.574 35.7067 73.574 42.9413V60.0587C73.574 67.2933 69.7144 73.9784 63.449 77.5957L48.625 86.1543C42.3596 89.7716 34.6404 89.7716 28.375 86.1543L13.551 77.5957C7.2856 73.9784 3.42597 67.2933 3.42597 60.0587L3.42597 42.9413C3.42597 35.7067 7.2856 29.0216 13.551 25.4043L28.375 16.8457Z" fill="#7B48E8"/>
<path d="M28.375 16.8457C34.6404 13.2284 42.3596 13.2284 48.625 16.8457L63.449 25.4043C69.7144 29.0216 73.574 35.7067 73.574 42.9413V60.0587C73.574 67.2933 69.7144 73.9784 63.449 77.5957L48.625 86.1543C42.3596 89.7716 34.6404 89.7716 28.375 86.1543L13.551 77.5957C7.2856 73.9784 3.42597 67.2933 3.42597 60.0587L3.42597 42.9413C3.42597 35.7067 7.2856 29.0216 13.551 25.4043L28.375 16.8457Z" fill="url(#paint0_linear_1_2)"/>
<path d="M28.375 16.8457C34.6404 13.2284 42.3596 13.2284 48.625 16.8457L63.449 25.4043C69.7144 29.0216 73.574 35.7067 73.574 42.9413V60.0587C73.574 67.2933 69.7144 73.9784 63.449 77.5957L48.625 86.1543C42.3596 89.7716 34.6404 89.7716 28.375 86.1543L13.551 77.5957C7.2856 73.9784 3.42597 67.2933 3.42597 60.0587L3.42597 42.9413C3.42597 35.7067 7.2856 29.0216 13.551 25.4043L28.375 16.8457Z" fill="url(#paint1_linear_1_2)"/>
<path d="M48.3753 52.7151L39.0003 62.0001L29.6253 52.7151C29.0069 52.1133 28.5199 51.3901 28.1948 50.5909C27.8696 49.7916 27.7135 48.9338 27.7362 48.0712C27.759 47.2087 27.96 46.3602 28.3268 45.5792C28.6935 44.7982 29.218 44.1016 29.8672 43.5333C30.5164 42.965 31.2762 42.5372 32.0988 42.2769C32.9215 42.0167 33.7891 41.9295 34.647 42.0211C35.505 42.1126 36.3347 42.3808 37.0839 42.8087C37.8331 43.2366 38.4856 43.8151 39.0003 44.5076C39.5172 43.8201 40.1705 43.2467 40.9192 42.8233C41.6679 42.3999 42.4959 42.1356 43.3515 42.047C44.207 41.9583 45.0717 42.0472 45.8913 42.3081C46.7109 42.5689 47.4678 42.9962 48.1148 43.563C48.7617 44.1299 49.2846 44.8242 49.6508 45.6024C50.0171 46.3807 50.2187 47.2262 50.2432 48.086C50.2677 48.9457 50.1144 49.8013 49.793 50.5991C49.4716 51.397 48.989 52.1198 48.3753 52.7226" stroke="white" stroke-width="2.14286" stroke-linecap="round" stroke-linejoin="round"/>
<path d="M42.7506 53.25L45.2506 55.75M39.0006 44.5L34.8844 48.6162C34.65 48.8506 34.5184 49.1685 34.5184 49.5C34.5184 49.8314 34.65 50.1493 34.8844 50.3837L35.5631 51.0625C36.4256 51.925 37.8256 51.925 38.6881 51.0625L39.9381 49.8125C40.684 49.0666 41.6957 48.6475 42.7506 48.6475C43.8055 48.6475 44.8172 49.0666 45.5631 49.8125L48.3756 52.625L39.0006 44.5ZM39.6256 56.375L42.1256 58.875L39.6256 56.375Z" stroke="white" stroke-width="2.14286" stroke-linecap="round" stroke-linejoin="round"/>
</g>
<defs>
<linearGradient id="paint0_linear_1_2" x1="-44.4808" y1="35.0508" x2="46.7855" y2="96.2793" gradientUnits="userSpaceOnUse">
<stop stop-color="#F88821"/>
<stop offset="1" stop-color="#F82129"/>
</linearGradient>
<linearGradient id="paint1_linear_1_2" x1="-7" y1="29.5" x2="46.8119" y2="96.4519" gradientUnits="userSpaceOnUse">
<stop stop-color="#F88821"/>
<stop offset="1" stop-color="#F82129"/>
</linearGradient>
<clipPath id="clip0_1_2">
<rect width="77" height="89" fill="white"/>
</clipPath>
</defs>
</svg>
