<svg width="77" height="89" viewBox="0 0 77 89" fill="none" xmlns="http://www.w3.org/2000/svg">
<g clip-path="url(#clip0_1_2)">
<path fill-rule="evenodd" clip-rule="evenodd" d="M25.375 2.91643C33.4968 -0.972193 43.5032 -0.972092 51.625 2.91643L70.8413 12.1167C73.3264 13.3066 75.5195 14.8051 77.3667 16.5349H317.633C319.48 14.8051 321.674 13.3066 324.159 12.1167L343.375 2.91643C351.497 -0.972193 361.503 -0.972092 369.625 2.91643L388.841 12.1167C391.326 13.3066 393.52 14.8051 395.367 16.5349H627.633C629.48 14.8051 631.674 13.3066 634.159 12.1167L653.375 2.91643C661.497 -0.972193 671.503 -0.972092 679.625 2.91643L698.841 12.1167C701.327 13.3069 703.521 14.806 705.368 16.5364C725.633 16.7003 742 30.374 742 47.2179V87.7546C742 98.8003 750.954 107.755 762 107.755H1149C1182.14 107.755 1209 130.031 1209 157.511V566.244C1209 593.724 1182.14 616 1149 616H-651C-684.137 616 -711 593.724 -711 566.244V157.511C-711 130.031 -684.137 107.755 -651 107.755H-266C-254.954 107.755 -246 98.8003 -246 87.7546V47.2179C-246 30.2721 -229.435 16.5349 -209 16.5349H-0.366699C1.48047 14.8051 3.67358 13.3066 6.15869 12.1167L25.375 2.91643Z" fill="#FAFAFA"/>
<rect width="108" height="58" transform="translate(-12 31)" fill="white"/>
<path d="M28.375 16.8457C34.6404 13.2284 42.3596 13.2284 48.625 16.8457L63.449 25.4043C69.7144 29.0216 73.574 35.7067 73.574 42.9413V60.0587C73.574 67.2933 69.7144 73.9784 63.449 77.5957L48.625 86.1543C42.3596 89.7716 34.6404 89.7716 28.375 86.1543L13.551 77.5957C7.2856 73.9784 3.42597 67.2933 3.42597 60.0587L3.42597 42.9413C3.42597 35.7067 7.2856 29.0216 13.551 25.4043L28.375 16.8457Z" fill="#7B48E8"/>
<path d="M28.375 16.8457C34.6404 13.2284 42.3596 13.2284 48.625 16.8457L63.449 25.4043C69.7144 29.0216 73.574 35.7067 73.574 42.9413V60.0587C73.574 67.2933 69.7144 73.9784 63.449 77.5957L48.625 86.1543C42.3596 89.7716 34.6404 89.7716 28.375 86.1543L13.551 77.5957C7.2856 73.9784 3.42597 67.2933 3.42597 60.0587L3.42597 42.9413C3.42597 35.7067 7.2856 29.0216 13.551 25.4043L28.375 16.8457Z" fill="url(#paint0_linear_1_2)"/>
<path d="M28.375 16.8457C34.6404 13.2284 42.3596 13.2284 48.625 16.8457L63.449 25.4043C69.7144 29.0216 73.574 35.7067 73.574 42.9413V60.0587C73.574 67.2933 69.7144 73.9784 63.449 77.5957L48.625 86.1543C42.3596 89.7716 34.6404 89.7716 28.375 86.1543L13.551 77.5957C7.2856 73.9784 3.42597 67.2933 3.42597 60.0587L3.42597 42.9413C3.42597 35.7067 7.2856 29.0216 13.551 25.4043L28.375 16.8457Z" fill="url(#paint1_linear_1_2)"/>
<path d="M38.7438 62.25H30.25C29.587 62.25 28.9511 61.9866 28.4822 61.5178C28.0134 61.0489 27.75 60.413 27.75 59.75V44.75C27.75 44.087 28.0134 43.4511 28.4822 42.9822C28.9511 42.5134 29.587 42.25 30.25 42.25H45.25C45.913 42.25 46.5489 42.5134 47.0178 42.9822C47.4866 43.4511 47.75 44.087 47.75 44.75V49.75" stroke="white" stroke-width="2.5" stroke-linecap="round" stroke-linejoin="round"/>
<path d="M46.5 63.5C49.2614 63.5 51.5 61.2614 51.5 58.5C51.5 55.7386 49.2614 53.5 46.5 53.5C43.7386 53.5 41.5 55.7386 41.5 58.5C41.5 61.2614 43.7386 63.5 46.5 63.5Z" stroke="white" stroke-width="2.5" stroke-linecap="round" stroke-linejoin="round"/>
<path d="M46.5 56.62V58.5L47.75 59.75M42.75 39.75V44.75V39.75ZM32.75 39.75V44.75V39.75ZM27.75 49.75H47.75H27.75Z" stroke="white" stroke-width="2.5" stroke-linecap="round" stroke-linejoin="round"/>
</g>
<defs>
<linearGradient id="paint0_linear_1_2" x1="-44.4808" y1="35.0508" x2="46.7855" y2="96.2793" gradientUnits="userSpaceOnUse">
<stop stop-color="#F88821"/>
<stop offset="1" stop-color="#F82129"/>
</linearGradient>
<linearGradient id="paint1_linear_1_2" x1="-7" y1="29.5" x2="46.8119" y2="96.4519" gradientUnits="userSpaceOnUse">
<stop stop-color="#F88821"/>
<stop offset="1" stop-color="#F82129"/>
</linearGradient>
<clipPath id="clip0_1_2">
<rect width="77" height="89" fill="white"/>
</clipPath>
</defs>
</svg>
