<svg width="77" height="89" viewBox="0 0 77 89" fill="none" xmlns="http://www.w3.org/2000/svg">
<g clip-path="url(#clip0_1_2)">
<path fill-rule="evenodd" clip-rule="evenodd" d="M25.375 2.91643C33.4968 -0.972193 43.5032 -0.972092 51.625 2.91643L70.8413 12.1167C73.3264 13.3066 75.5195 14.8051 77.3667 16.5349H317.633C319.48 14.8051 321.674 13.3066 324.159 12.1167L343.375 2.91643C351.497 -0.972193 361.503 -0.972092 369.625 2.91643L388.841 12.1167C391.326 13.3066 393.52 14.8051 395.367 16.5349H627.633C629.48 14.8051 631.674 13.3066 634.159 12.1167L653.375 2.91643C661.497 -0.972193 671.503 -0.972092 679.625 2.91643L698.841 12.1167C701.327 13.3069 703.521 14.806 705.368 16.5364C725.633 16.7003 742 30.374 742 47.2179V87.7546C742 98.8003 750.954 107.755 762 107.755H1149C1182.14 107.755 1209 130.031 1209 157.511V566.244C1209 593.724 1182.14 616 1149 616H-651C-684.137 616 -711 593.724 -711 566.244V157.511C-711 130.031 -684.137 107.755 -651 107.755H-266C-254.954 107.755 -246 98.8003 -246 87.7546V47.2179C-246 30.2721 -229.435 16.5349 -209 16.5349H-0.366699C1.48047 14.8051 3.67358 13.3066 6.15869 12.1167L25.375 2.91643Z" fill="#FAFAFA"/>
<rect width="108" height="58" transform="translate(-12 31)" fill="white"/>
<path d="M28.375 16.8457C34.6404 13.2284 42.3596 13.2284 48.625 16.8457L63.449 25.4043C69.7144 29.0216 73.574 35.7067 73.574 42.9413V60.0587C73.574 67.2933 69.7144 73.9784 63.449 77.5957L48.625 86.1543C42.3596 89.7716 34.6404 89.7716 28.375 86.1543L13.551 77.5957C7.2856 73.9784 3.42597 67.2933 3.42597 60.0587L3.42597 42.9413C3.42597 35.7067 7.2856 29.0216 13.551 25.4043L28.375 16.8457Z" fill="#7B48E8"/>
<path d="M28.375 16.8457C34.6404 13.2284 42.3596 13.2284 48.625 16.8457L63.449 25.4043C69.7144 29.0216 73.574 35.7067 73.574 42.9413V60.0587C73.574 67.2933 69.7144 73.9784 63.449 77.5957L48.625 86.1543C42.3596 89.7716 34.6404 89.7716 28.375 86.1543L13.551 77.5957C7.2856 73.9784 3.42597 67.2933 3.42597 60.0587L3.42597 42.9413C3.42597 35.7067 7.2856 29.0216 13.551 25.4043L28.375 16.8457Z" fill="url(#paint0_linear_1_2)"/>
<path fill-rule="evenodd" clip-rule="evenodd" d="M38.5268 39.1742C38.9138 38.9419 39.3974 38.9419 39.7844 39.1742L45.8955 42.8408C46.2637 43.0617 46.4889 43.4596 46.4889 43.8889V48.7778C46.4889 49.2181 46.2521 49.6244 45.8689 49.8414C45.4857 50.0583 45.0155 50.0524 44.6379 49.8258L39.1556 46.5365L33.6733 49.8258C33.2957 50.0524 32.8255 50.0583 32.4423 49.8414C32.0591 49.6244 31.8223 49.2181 31.8223 48.7778V43.8889C31.8223 43.4596 32.0475 43.0617 32.4157 42.8408L38.5268 39.1742ZM34.2667 44.5809V46.6191L38.5268 44.0631C38.9138 43.8308 39.3974 43.8308 39.7844 44.0631L44.0445 46.6191V44.5809L39.1556 41.6476L34.2667 44.5809ZM34.2667 55.5809V57.6191L38.5268 55.0631C38.9138 54.8308 39.3974 54.8308 39.7844 55.0631L44.0445 57.6191V55.5809L39.1556 52.6476L34.2667 55.5809ZM38.5268 50.1742C38.9138 49.9419 39.3974 49.9419 39.7844 50.1742L45.8955 53.8408C46.2637 54.0617 46.4889 54.4596 46.4889 54.8889V59.7778C46.4889 60.2181 46.2521 60.6244 45.8689 60.8414C45.4857 61.0583 45.0155 61.0524 44.6379 60.8258L39.1556 57.5365L33.6733 60.8258C33.2957 61.0524 32.8255 61.0583 32.4423 60.8414C32.0591 60.6244 31.8223 60.2181 31.8223 59.7778V54.8889C31.8223 54.4596 32.0475 54.0617 32.4157 53.8408L38.5268 50.1742Z" fill="white"/>
</g>
<defs>
<linearGradient id="paint0_linear_1_2" x1="-7" y1="29.5" x2="46.8119" y2="96.4519" gradientUnits="userSpaceOnUse">
<stop stop-color="#F88821"/>
<stop offset="1" stop-color="#F82129"/>
</linearGradient>
<clipPath id="clip0_1_2">
<rect width="77" height="89" fill="white"/>
</clipPath>
</defs>
</svg>
