<svg width="20" height="20" viewBox="0 0 20 20" fill="none" xmlns="http://www.w3.org/2000/svg">
<path fill-rule="evenodd" clip-rule="evenodd" d="M291.375 -85.0836C299.497 -88.9722 309.503 -88.9721 317.625 -85.0836L336.841 -75.8833C339.326 -74.6934 341.52 -73.1949 343.367 -71.4651H583.633C585.48 -73.1949 587.674 -74.6934 590.159 -75.8833L609.375 -85.0836C617.497 -88.9722 627.503 -88.9721 635.625 -85.0836L654.841 -75.8833C657.326 -74.6934 659.52 -73.1949 661.367 -71.4651H893.633C895.48 -73.1949 897.674 -74.6934 900.159 -75.8833L919.375 -85.0836C927.497 -88.9722 937.503 -88.9721 945.625 -85.0836L964.841 -75.8833C967.327 -74.6931 969.521 -73.194 971.368 -71.4636C991.633 -71.2997 1008 -57.626 1008 -40.7821V-0.245432C1008 10.8003 1016.95 19.7546 1028 19.7546H1415C1448.14 19.7546 1475 42.0312 1475 69.5108V478.244C1475 505.724 1448.14 528 1415 528H-385C-418.137 528 -445 505.724 -445 478.244V69.5108C-445 42.0312 -418.137 19.7546 -385 19.7546H1.19209e-05C11.0457 19.7546 20 10.8003 20 -0.245414V-40.7821C20 -57.7279 36.5655 -71.4651 57 -71.4651H265.633C267.48 -73.1949 269.674 -74.6934 272.159 -75.8833L291.375 -85.0836Z" fill="#FAFAFA"/>
</svg>
