<svg width="20" height="20" viewBox="0 0 20 20" fill="none" xmlns="http://www.w3.org/2000/svg">
<path fill-rule="evenodd" clip-rule="evenodd" d="M-716.625 -85.0836C-708.503 -88.9722 -698.497 -88.9721 -690.375 -85.0836L-671.159 -75.8833C-668.674 -74.6934 -666.48 -73.1949 -664.633 -71.4651H-424.367C-422.52 -73.1949 -420.326 -74.6934 -417.841 -75.8833L-398.625 -85.0836C-390.503 -88.9722 -380.497 -88.9721 -372.375 -85.0836L-353.159 -75.8833C-350.674 -74.6934 -348.48 -73.1949 -346.633 -71.4651H-114.367C-112.52 -73.1949 -110.326 -74.6934 -107.841 -75.8833L-88.625 -85.0836C-80.5032 -88.9722 -70.4968 -88.9721 -62.375 -85.0836L-43.1587 -75.8833C-40.6729 -74.6931 -38.4792 -73.194 -36.6317 -71.4636C-16.3669 -71.2997 0 -57.626 0 -40.7821V-0.245432C0 10.8003 8.95431 19.7546 20 19.7546H407C440.137 19.7546 467 42.0312 467 69.5108V478.244C467 505.724 440.137 528 407 528H-1393C-1426.14 528 -1453 505.724 -1453 478.244V69.5108C-1453 42.0312 -1426.14 19.7546 -1393 19.7546H-1008C-996.954 19.7546 -988 10.8003 -988 -0.245414V-40.7821C-988 -57.7279 -971.435 -71.4651 -951 -71.4651H-742.367C-740.52 -73.1949 -738.326 -74.6934 -735.841 -75.8833L-716.625 -85.0836Z" fill="#FAFAFA"/>
</svg>
