<svg width="16" height="16" viewBox="0 0 16 16" fill="none" xmlns="http://www.w3.org/2000/svg">
<path d="M1.59961 2.4001C1.59961 2.18792 1.68389 1.98444 1.83392 1.83441C1.98395 1.68438 2.18744 1.6001 2.39961 1.6001H4.12201C4.31137 1.60018 4.49457 1.66744 4.639 1.78991C4.78344 1.91237 4.87975 2.0821 4.91081 2.2689L5.50281 5.8169C5.5311 5.98587 5.50439 6.15946 5.42662 6.31212C5.34885 6.46478 5.22413 6.58844 5.07081 6.6649L3.83241 7.2833C4.2765 8.38382 4.93788 9.38352 5.77703 10.2227C6.61618 11.0618 7.61589 11.7232 8.71641 12.1673L9.33561 10.9289C9.41203 10.7757 9.53556 10.6511 9.68805 10.5733C9.84054 10.4956 10.014 10.4688 10.1828 10.4969L13.7308 11.0889C13.9176 11.12 14.0873 11.2163 14.2098 11.3607C14.3323 11.5051 14.3995 11.6883 14.3996 11.8777V13.6001C14.3996 13.8123 14.3153 14.0158 14.1653 14.1658C14.0153 14.3158 13.8118 14.4001 13.5996 14.4001H11.9996C6.25561 14.4001 1.59961 9.7441 1.59961 4.0001V2.4001Z" fill="#DEDEDE"/>
</svg>
