<svg width="16" height="16" viewBox="0 0 16 16" fill="none" xmlns="http://www.w3.org/2000/svg">
<path d="M8.00002 8.00002C7.17502 8.00002 6.46877 7.70627 5.88126 7.11877C5.29376 6.53127 5.00001 5.82501 5.00001 5.00001C5.00001 4.17501 5.29376 3.46876 5.88126 2.88125C6.46877 2.29375 7.17502 2 8.00002 2C8.82502 2 9.53128 2.29375 10.1188 2.88125C10.7063 3.46876 11 4.17501 11 5.00001C11 5.82501 10.7063 6.53127 10.1188 7.11877C9.53128 7.70627 8.82502 8.00002 8.00002 8.00002ZM3.50001 14C3.0875 14 2.7345 13.8533 2.441 13.5598C2.147 13.2658 2 12.9125 2 12.5V11.9C2 11.475 2.1095 11.0843 2.3285 10.7278C2.547 10.3718 2.8375 10.1 3.2 9.91253C3.97501 9.52503 4.76251 9.23427 5.56251 9.04027C6.36251 8.84677 7.17502 8.75002 8.00002 8.75002C8.82502 8.75002 9.63753 8.84677 10.4375 9.04027C11.2375 9.23427 12.025 9.52503 12.8 9.91253C13.1625 10.1 13.453 10.3718 13.6715 10.7278C13.8905 11.0843 14 11.475 14 11.9V12.5C14 12.9125 13.8533 13.2658 13.5598 13.5598C13.2658 13.8533 12.9125 14 12.5 14H3.50001Z" fill="#DEDEDE"/>
</svg>
