<svg width="25" height="24" viewBox="0 0 25 24" fill="none" xmlns="http://www.w3.org/2000/svg">
<path d="M12.1025 14C13.7594 14 15.1025 12.6569 15.1025 11C15.1025 9.34315 13.7594 8 12.1025 8C10.4457 8 9.10254 9.34315 9.10254 11C9.10254 12.6569 10.4457 14 12.1025 14Z" stroke="#383838" stroke-width="2" stroke-linecap="round" stroke-linejoin="round"/>
<path d="M17.7605 16.6567L13.5175 20.8997C13.1425 21.2743 12.6341 21.4848 12.104 21.4848C11.5739 21.4848 11.0655 21.2743 10.6905 20.8997L6.44652 16.6567C5.32774 15.5379 4.56586 14.1124 4.25721 12.5606C3.94856 11.0087 4.10701 9.40022 4.71252 7.93844C5.31804 6.47665 6.34342 5.22725 7.659 4.34821C8.97458 3.46918 10.5213 3 12.1035 3C13.6858 3 15.2325 3.46918 16.548 4.34821C17.8636 5.22725 18.889 6.47665 19.4945 7.93844C20.1 9.40022 20.2585 11.0087 19.9498 12.5606C19.6412 14.1124 18.8793 15.5379 17.7605 16.6567V16.6567Z" stroke="#383838" stroke-width="2" stroke-linecap="round" stroke-linejoin="round"/>
</svg>
