<svg width="24" height="24" viewBox="0 0 24 24" fill="none" xmlns="http://www.w3.org/2000/svg">
<path d="M13.9996 22H9.99959C9.44959 22 8.97893 21.8043 8.58759 21.413C8.19559 21.021 7.99959 20.55 7.99959 20V12C7.99959 11.45 8.19559 10.979 8.58759 10.587C8.97893 10.1957 9.44959 10 9.99959 10H13.9996C14.5496 10 15.0206 10.1957 15.4126 10.587C15.8039 10.979 15.9996 11.45 15.9996 12V20C15.9996 20.55 15.8039 21.021 15.4126 21.413C15.0206 21.8043 14.5496 22 13.9996 22ZM13.9996 20V12H9.99959V20H13.9996ZM13.9996 20H9.99959H13.9996ZM7.72459 7.775C7.52459 7.575 7.42459 7.33733 7.42459 7.062C7.42459 6.78733 7.54126 6.56667 7.77459 6.4C8.39126 5.95 9.05793 5.604 9.77459 5.362C10.4913 5.12067 11.2329 5 11.9996 5C12.7663 5 13.5079 5.12067 14.2246 5.362C14.9413 5.604 15.6079 5.95 16.2246 6.4C16.4579 6.56667 16.5786 6.78333 16.5866 7.05C16.5953 7.31667 16.4913 7.55833 16.2746 7.775C16.0913 7.95833 15.8579 8.05833 15.5746 8.075C15.2913 8.09167 15.0246 8.01667 14.7746 7.85C14.3746 7.56667 13.9373 7.35433 13.4626 7.213C12.9873 7.071 12.4996 7 11.9996 7C11.4996 7 11.0123 7.071 10.5376 7.213C10.0623 7.35433 9.62459 7.56667 9.22459 7.85C8.97459 8.01667 8.70793 8.09167 8.42459 8.075C8.14126 8.05833 7.90793 7.95833 7.72459 7.775V7.775ZM4.94959 4.9C4.74959 4.7 4.65359 4.46667 4.66159 4.2C4.67026 3.93333 4.77459 3.71667 4.97459 3.55C5.97459 2.71667 7.07059 2.08333 8.26259 1.65C9.45393 1.21667 10.6996 1 11.9996 1C13.2996 1 14.5456 1.21667 15.7376 1.65C16.9289 2.08333 18.0246 2.71667 19.0246 3.55C19.2246 3.71667 19.3289 3.93333 19.3376 4.2C19.3456 4.46667 19.2496 4.7 19.0496 4.9C18.8663 5.08333 18.6373 5.18333 18.3626 5.2C18.0873 5.21667 17.8329 5.13333 17.5996 4.95C16.7996 4.31667 15.9206 3.83333 14.9626 3.5C14.0039 3.16667 13.0163 3 11.9996 3C10.9829 3 9.99559 3.16667 9.03759 3.5C8.07893 3.83333 7.19959 4.31667 6.39959 4.95C6.16626 5.13333 5.91226 5.21667 5.63759 5.2C5.36226 5.18333 5.13293 5.08333 4.94959 4.9Z" fill="#383838"/>
</svg>
