<svg width="35" height="37" viewBox="0 0 35 37" fill="none" xmlns="http://www.w3.org/2000/svg">
<g filter="url(#filter0_d_1122_7341)">
<path d="M28.0439 6.83374C27.3337 6.16907 24.4638 4.05586 18.0713 4.02715C18.0713 4.02715 10.5328 3.56606 6.85795 6.98512C4.81231 9.06048 4.09268 12.0972 4.01678 15.8621C3.94087 19.6269 3.84266 26.6826 10.5478 28.5957H10.5543L10.55 31.5149C10.55 31.5149 10.5071 32.6968 11.2743 32.9378C12.2024 33.2301 12.747 32.3318 13.633 31.3635C14.1193 30.832 14.7909 30.0512 15.297 29.4544C19.8827 29.8458 23.4097 28.9511 23.8102 28.8188C24.7361 28.5143 29.9755 27.8336 30.8276 20.7784C31.7072 13.5066 30.4022 8.90693 28.0439 6.83374V6.83374Z" fill="white"/>
<path d="M26.5534 8.30278C25.953 7.74946 23.3615 6.09779 17.954 6.07386C17.954 6.07386 11.5508 5.64713 8.44241 8.50287C6.7124 10.2355 6.12958 12.8119 6.06568 15.9561C6.00178 19.1002 5.67071 25.1066 11.3406 26.7044C11.3406 26.7044 11.3183 31.1635 11.3157 31.5554C11.3157 31.8295 11.3586 32.017 11.513 32.0557C11.6241 32.0831 11.7905 32.0248 11.932 31.8817C12.8386 30.9582 15.7411 27.4065 15.7411 27.4065C19.6356 27.6644 22.734 26.8845 23.0673 26.774C23.8529 26.5178 28.1025 26.1476 28.8217 20.2551C29.5649 14.1813 28.5485 10.0354 26.5534 8.30278V8.30278Z" fill="#7360F2"/>
<path d="M20.7026 15.6975C20.6322 14.2594 19.912 13.5041 18.542 13.4316" stroke="white" stroke-width="0.723052" stroke-linecap="round" stroke-linejoin="round"/>
<path d="M22.5571 16.3284C22.5856 14.9886 22.1944 13.8692 21.3833 12.9703C20.5684 12.0681 19.4406 11.5713 17.9932 11.4639" stroke="white" stroke-width="0.723052" stroke-linecap="round" stroke-linejoin="round"/>
<path d="M24.4566 17.0817C24.4392 14.7568 23.7543 12.9258 22.4019 11.5886C21.0496 10.2514 19.3678 9.57573 17.3564 9.56152" stroke="white" stroke-width="0.723052" stroke-linecap="round" stroke-linejoin="round"/>
<path d="M18.6126 20.6089C18.6126 20.6089 19.1208 20.6524 19.3944 20.3105L19.9279 19.6297C20.1853 19.2921 20.8062 19.0768 21.4144 19.4205C21.8701 19.6841 22.3125 19.9707 22.74 20.2791C23.1435 20.5802 23.9699 21.2796 23.9725 21.2796C24.3662 21.6167 24.4571 22.1118 24.1891 22.6338C24.1891 22.6368 24.1869 22.642 24.1869 22.6446C23.8917 23.1637 23.5169 23.6318 23.0766 24.0314C23.0715 24.034 23.0715 24.0366 23.0667 24.0392C22.6842 24.3634 22.3084 24.5477 21.9393 24.5921C21.8849 24.6018 21.8297 24.6053 21.7746 24.6026C21.6118 24.6041 21.4499 24.5789 21.2951 24.5277L21.2831 24.5099C20.7145 24.3472 19.765 23.9401 18.1838 23.0553C17.2688 22.5493 16.3977 21.9656 15.5798 21.3105C15.1698 20.9823 14.7788 20.6306 14.4086 20.257L14.3691 20.2169L14.3296 20.1769L14.2902 20.1369C14.2769 20.1238 14.264 20.1104 14.2507 20.0969C13.8824 19.7214 13.5356 19.3247 13.212 18.9089C12.5663 18.0794 11.9908 17.196 11.4919 16.268C10.6196 14.6638 10.2182 13.7016 10.0578 13.1239L10.0402 13.1117C9.98995 12.9547 9.96518 12.7905 9.96689 12.6254C9.96389 12.5695 9.9672 12.5135 9.97676 12.4584C10.0228 12.0846 10.2048 11.7031 10.5227 11.3139C10.5253 11.3091 10.5278 11.3091 10.5304 11.3039C10.9242 10.8573 11.3858 10.4772 11.8976 10.1781C11.9002 10.1781 11.9053 10.1755 11.9083 10.1755C12.423 9.90363 12.911 9.99585 13.2429 10.393C13.2455 10.3956 13.9338 11.2338 14.2293 11.6432C14.5335 12.0772 14.816 12.5264 15.0759 12.9891C15.4147 13.6054 15.2024 14.2366 14.8696 14.4967L14.1984 15.0379C13.8596 15.3154 13.9042 15.8309 13.9042 15.8309C13.9042 15.8309 14.8983 19.6471 18.6126 20.6089V20.6089Z" fill="white"/>
</g>
<defs>
<filter id="filter0_d_1122_7341" x="0.261622" y="0.26797" width="34.5798" height="36.4645" filterUnits="userSpaceOnUse" color-interpolation-filters="sRGB">
<feFlood flood-opacity="0" result="BackgroundImageFix"/>
<feColorMatrix in="SourceAlpha" type="matrix" values="0 0 0 0 0 0 0 0 0 0 0 0 0 0 0 0 0 0 127 0" result="hardAlpha"/>
<feOffset/>
<feGaussianBlur stdDeviation="1.86919"/>
<feComposite in2="hardAlpha" operator="out"/>
<feColorMatrix type="matrix" values="0 0 0 0 0 0 0 0 0 0 0 0 0 0 0 0 0 0 0.15 0"/>
<feBlend mode="normal" in2="BackgroundImageFix" result="effect1_dropShadow_1122_7341"/>
<feBlend mode="normal" in="SourceGraphic" in2="effect1_dropShadow_1122_7341" result="shape"/>
</filter>
</defs>
</svg>
