<svg width="265" height="647" viewBox="0 0 265 647" fill="none" xmlns="http://www.w3.org/2000/svg">
<path d="M263.692 430.361C263.459 469.274 242.808 505.207 209.301 524.998L117.067 579.476L23.9785 632.481C-9.83815 651.737 -51.2826 651.819 -85.1749 632.696L-178.472 580.059L-270.92 525.944C-304.504 506.286 -325.297 470.435 -325.683 431.522L-326.745 324.406L-326.105 217.286C-325.872 178.372 -305.221 142.439 -271.714 122.649L-179.48 68.1704L-86.3917 15.1652C-52.575 -4.09021 -11.1305 -4.17188 22.7618 14.9501L116.059 67.5881L208.507 121.703C242.091 141.361 262.884 177.212 263.27 216.125L264.332 323.241L263.692 430.361Z" fill="url(#paint0_linear_978_4020)"/>
<path d="M263.692 430.361C263.459 469.274 242.808 505.207 209.301 524.998L117.067 579.476L23.9785 632.481C-9.83815 651.737 -51.2826 651.819 -85.1749 632.696L-178.472 580.059L-270.92 525.944C-304.504 506.286 -325.297 470.435 -325.683 431.522L-326.745 324.406L-326.105 217.286C-325.872 178.372 -305.221 142.439 -271.714 122.649L-179.48 68.1704L-86.3917 15.1652C-52.575 -4.09021 -11.1305 -4.17188 22.7618 14.9501L116.059 67.5881L208.507 121.703C242.091 141.361 262.884 177.212 263.27 216.125L264.332 323.241L263.692 430.361Z" fill="url(#paint1_linear_978_4020)"/>
<defs>
<linearGradient id="paint0_linear_978_4020" x1="121.9" y1="57.4243" x2="-393.359" y2="193.111" gradientUnits="userSpaceOnUse">
<stop stop-color="#F86821"/>
<stop offset="1" stop-color="#F82129"/>
</linearGradient>
<linearGradient id="paint1_linear_978_4020" x1="121.9" y1="57.4243" x2="-393.359" y2="193.111" gradientUnits="userSpaceOnUse">
<stop stop-color="#F88821"/>
<stop offset="1" stop-color="#F82129"/>
</linearGradient>
</defs>
</svg>
