<svg width="1920" height="3351" viewBox="0 0 1920 3351" fill="none" xmlns="http://www.w3.org/2000/svg">
<path d="M0 140.136C0 78.4262 56.3483 32.0747 116.899 43.9754L1840.9 382.811C1886.86 391.843 1920 432.133 1920 478.971V3253C1920 3307.12 1876.12 3351 1822 3351H0V140.136Z" fill="#7B48E8"/>
<path d="M1910.59 1416.34C1990.36 1441.32 2050.75 1506.97 2069 1588.56L2178.06 2076.02C2196.31 2157.6 2169.65 2242.72 2108.12 2299.32L1740.49 2637.49C1678.97 2694.09 1591.92 2713.56 1512.14 2688.58L1035.46 2539.29C955.681 2514.3 895.292 2448.65 877.041 2367.07L767.99 1879.61C749.738 1798.03 776.398 1712.9 837.926 1656.31L1205.55 1318.14C1267.08 1261.54 1354.13 1242.06 1433.91 1267.05L1910.59 1416.34Z" fill="#8654F1"/>
<path d="M1085.25 419.942C1149.84 440.17 1198.73 493.32 1213.51 559.369L1300.02 946.066C1314.79 1012.12 1293.21 1081.03 1243.4 1126.85L951.761 1395.12C901.948 1440.94 831.474 1456.71 766.886 1436.48L388.742 1318.05C324.153 1297.82 275.262 1244.67 260.486 1178.62L173.977 791.926C159.2 725.876 180.784 656.961 230.596 611.14L522.231 342.872C572.043 297.051 642.518 281.285 707.106 301.513L1085.25 419.942Z" fill="#8654F1"/>
</svg>
