<svg width="345" height="196" viewBox="0 0 345 196" fill="none" xmlns="http://www.w3.org/2000/svg">
<g filter="url(#filter0_i_1828_24159)">
<path d="M187.063 0.701173C217.418 -0.815772 246.341 13.7203 263.236 38.9853L297.434 90.1241L330.815 141.8C347.306 167.33 349.179 199.646 335.746 226.91L308.558 282.096L280.495 336.842C266.631 363.89 239.581 381.669 209.254 383.668L147.867 387.715L86.4242 390.786C56.0684 392.303 27.1462 377.766 10.2508 352.502L-23.9471 301.363L-57.3277 249.687C-73.8193 224.156 -75.6918 191.841 -62.2594 164.577L-35.0708 109.391L-7.00843 54.6445C6.85574 27.5972 33.9055 9.8178 64.2333 7.81847L125.62 3.77162L187.063 0.701173Z" fill="url(#paint0_linear_1828_24159)"/>
<path d="M187.063 0.701173C217.418 -0.815772 246.341 13.7203 263.236 38.9853L297.434 90.1241L330.815 141.8C347.306 167.33 349.179 199.646 335.746 226.91L308.558 282.096L280.495 336.842C266.631 363.89 239.581 381.669 209.254 383.668L147.867 387.715L86.4242 390.786C56.0684 392.303 27.1462 377.766 10.2508 352.502L-23.9471 301.363L-57.3277 249.687C-73.8193 224.156 -75.6918 191.841 -62.2594 164.577L-35.0708 109.391L-7.00843 54.6445C6.85574 27.5972 33.9055 9.8178 64.2333 7.81847L125.62 3.77162L187.063 0.701173Z" fill="url(#paint1_linear_1828_24159)"/>
</g>
<defs>
<filter id="filter0_i_1828_24159" x="-71.16" y="0.593262" width="415.807" height="390.3" filterUnits="userSpaceOnUse" color-interpolation-filters="sRGB">
<feFlood flood-opacity="0" result="BackgroundImageFix"/>
<feBlend mode="normal" in="SourceGraphic" in2="BackgroundImageFix" result="shape"/>
<feColorMatrix in="SourceAlpha" type="matrix" values="0 0 0 0 0 0 0 0 0 0 0 0 0 0 0 0 0 0 127 0" result="hardAlpha"/>
<feOffset/>
<feGaussianBlur stdDeviation="42.9894"/>
<feComposite in2="hardAlpha" operator="arithmetic" k2="-1" k3="1"/>
<feColorMatrix type="matrix" values="0 0 0 0 1 0 0 0 0 1 0 0 0 0 1 0 0 0 0.51 0"/>
<feBlend mode="normal" in2="shape" result="effect1_innerShadow_1828_24159"/>
</filter>
<linearGradient id="paint0_linear_1828_24159" x1="-41.886" y1="105.966" x2="64.9954" y2="435.763" gradientUnits="userSpaceOnUse">
<stop stop-color="#F86821"/>
<stop offset="1" stop-color="#F82129"/>
</linearGradient>
<linearGradient id="paint1_linear_1828_24159" x1="-41.886" y1="105.966" x2="64.9954" y2="435.763" gradientUnits="userSpaceOnUse">
<stop stop-color="#F88821"/>
<stop offset="1" stop-color="#F82129"/>
</linearGradient>
</defs>
</svg>
