<svg width="422" height="334" viewBox="0 0 422 334" fill="none" xmlns="http://www.w3.org/2000/svg">
<g filter="url(#filter0_i_1960_25356)">
<path d="M340.924 -44.5319C382.78 -49.1185 423.97 -31.387 449.407 2.16786L500.893 70.0862L551.293 138.815C576.193 172.77 581.432 217.306 565.091 256.113L532.015 334.66L497.695 412.672C480.739 451.214 444.788 478.019 403.011 483.271L318.448 493.9L233.728 503.184C191.872 507.77 150.682 490.039 125.246 456.484L73.7592 388.566L23.3591 319.837C-1.54094 285.882 -6.77986 241.345 9.56117 202.539L42.637 123.991L76.9575 45.9795C93.9133 7.43791 129.864 -19.3676 171.642 -24.619L256.204 -35.2483L340.924 -44.5319Z" fill="url(#paint0_linear_1960_25356)"/>
<path d="M340.924 -44.5319C382.78 -49.1185 423.97 -31.387 449.407 2.16786L500.893 70.0862L551.293 138.815C576.193 172.77 581.432 217.306 565.091 256.113L532.015 334.66L497.695 412.672C480.739 451.214 444.788 478.019 403.011 483.271L318.448 493.9L233.728 503.184C191.872 507.77 150.682 490.039 125.246 456.484L73.7592 388.566L23.3591 319.837C-1.54094 285.882 -6.77986 241.345 9.56117 202.539L42.637 123.991L76.9575 45.9795C93.9133 7.43791 129.864 -19.3676 171.642 -24.619L256.204 -35.2483L340.924 -44.5319Z" fill="url(#paint1_linear_1960_25356)"/>
</g>
<defs>
<filter id="filter0_i_1960_25356" x="0.173828" y="-45.2461" width="574.305" height="549.144" filterUnits="userSpaceOnUse" color-interpolation-filters="sRGB">
<feFlood flood-opacity="0" result="BackgroundImageFix"/>
<feBlend mode="normal" in="SourceGraphic" in2="BackgroundImageFix" result="shape"/>
<feColorMatrix in="SourceAlpha" type="matrix" values="0 0 0 0 0 0 0 0 0 0 0 0 0 0 0 0 0 0 127 0" result="hardAlpha"/>
<feOffset/>
<feGaussianBlur stdDeviation="59.5563"/>
<feComposite in2="hardAlpha" operator="arithmetic" k2="-1" k3="1"/>
<feColorMatrix type="matrix" values="0 0 0 0 1 0 0 0 0 1 0 0 0 0 1 0 0 0 0.51 0"/>
<feBlend mode="normal" in2="shape" result="effect1_innerShadow_1960_25356"/>
</filter>
<linearGradient id="paint0_linear_1960_25356" x1="32.9312" y1="119.813" x2="207.781" y2="567.142" gradientUnits="userSpaceOnUse">
<stop stop-color="#F86821"/>
<stop offset="1" stop-color="#F82129"/>
</linearGradient>
<linearGradient id="paint1_linear_1960_25356" x1="32.9312" y1="119.813" x2="207.781" y2="567.142" gradientUnits="userSpaceOnUse">
<stop stop-color="#F88821"/>
<stop offset="1" stop-color="#F82129"/>
</linearGradient>
</defs>
</svg>
