<svg width="481" height="477" viewBox="0 0 481 477" fill="none" xmlns="http://www.w3.org/2000/svg">
<g filter="url(#filter0_i_1936_27769)">
<path d="M117.078 439.567C82.5373 430.886 55.093 404.703 44.7972 370.609L23.9575 301.599L4.21751 232.266C-5.53497 198.012 3.41762 161.154 27.7962 135.19L77.1409 82.6372L127.315 30.8755C152.103 5.30276 188.5 -5.37343 223.174 2.7573L293.359 19.2146L363.273 36.7857C397.814 45.4666 425.258 71.6492 435.554 105.743L456.393 174.754L476.133 244.086C485.886 278.34 476.933 315.199 452.555 341.162L403.21 393.715L353.036 445.477C328.248 471.05 291.851 481.726 257.176 473.595L186.992 457.138L117.078 439.567Z" fill="#7B48E8"/>
</g>
<defs>
<filter id="filter0_i_1936_27769" x="0.34375" y="0.0800781" width="479.664" height="476.192" filterUnits="userSpaceOnUse" color-interpolation-filters="sRGB">
<feFlood flood-opacity="0" result="BackgroundImageFix"/>
<feBlend mode="normal" in="SourceGraphic" in2="BackgroundImageFix" result="shape"/>
<feColorMatrix in="SourceAlpha" type="matrix" values="0 0 0 0 0 0 0 0 0 0 0 0 0 0 0 0 0 0 127 0" result="hardAlpha"/>
<feOffset/>
<feGaussianBlur stdDeviation="50.3745"/>
<feComposite in2="hardAlpha" operator="arithmetic" k2="-1" k3="1"/>
<feColorMatrix type="matrix" values="0 0 0 0 1 0 0 0 0 1 0 0 0 0 1 0 0 0 0.51 0"/>
<feBlend mode="normal" in2="shape" result="effect1_innerShadow_1936_27769"/>
</filter>
</defs>
</svg>
