<svg width="240" height="267" viewBox="0 0 240 267" fill="none" xmlns="http://www.w3.org/2000/svg">
<circle cx="133.982" cy="160.595" r="70.3828" stroke="#E2DEDE"/>
<circle cx="133.982" cy="160.595" r="105" stroke="#E2DEDE"/>
<circle cx="133.982" cy="160.595" r="27.5234" stroke="#E2DEDE"/>
<g filter="url(#filter0_i_1963_27297)">
<path d="M98.3527 29.3312C106.758 29.1594 114.636 33.4145 119.102 40.5378L128.14 54.9562L136.948 69.5164C141.299 76.7098 141.553 85.66 137.617 93.0887L129.649 108.125L121.444 123.033C117.39 130.398 109.766 135.093 101.364 135.399L84.3582 136.017L67.3448 136.365C58.9394 136.536 51.0612 132.281 46.596 125.158L37.5578 110.74L28.7499 96.1795C24.3984 88.9861 24.1443 80.0359 28.0807 72.6072L36.0483 57.5707L44.2539 42.6628C48.3078 35.2976 55.9318 30.6024 64.3335 30.2971L81.3392 29.6789L98.3527 29.3312Z" fill="url(#paint0_linear_1963_27297)"/>
<path d="M98.3527 29.3312C106.758 29.1594 114.636 33.4145 119.102 40.5378L128.14 54.9562L136.948 69.5164C141.299 76.7098 141.553 85.66 137.617 93.0887L129.649 108.125L121.444 123.033C117.39 130.398 109.766 135.093 101.364 135.399L84.3582 136.017L67.3448 136.365C58.9394 136.536 51.0612 132.281 46.596 125.158L37.5578 110.74L28.7499 96.1795C24.3984 88.9861 24.1443 80.0359 28.0807 72.6072L36.0483 57.5707L44.2539 42.6628C48.3078 35.2976 55.9318 30.6024 64.3335 30.2971L81.3392 29.6789L98.3527 29.3312Z" fill="url(#paint1_linear_1963_27297)"/>
</g>
<defs>
<filter id="filter0_i_1963_27297" x="25.2969" y="29.3262" width="115.104" height="107.043" filterUnits="userSpaceOnUse" color-interpolation-filters="sRGB">
<feFlood flood-opacity="0" result="BackgroundImageFix"/>
<feBlend mode="normal" in="SourceGraphic" in2="BackgroundImageFix" result="shape"/>
<feColorMatrix in="SourceAlpha" type="matrix" values="0 0 0 0 0 0 0 0 0 0 0 0 0 0 0 0 0 0 127 0" result="hardAlpha"/>
<feOffset/>
<feGaussianBlur stdDeviation="11.8913"/>
<feComposite in2="hardAlpha" operator="arithmetic" k2="-1" k3="1"/>
<feColorMatrix type="matrix" values="0 0 0 0 1 0 0 0 0 1 0 0 0 0 1 0 0 0 0.51 0"/>
<feBlend mode="normal" in2="shape" result="effect1_innerShadow_1963_27297"/>
</filter>
<linearGradient id="paint0_linear_1963_27297" x1="34.1919" y1="56.5681" x2="61.0531" y2="148.626" gradientUnits="userSpaceOnUse">
<stop stop-color="#F86821"/>
<stop offset="1" stop-color="#F82129"/>
</linearGradient>
<linearGradient id="paint1_linear_1963_27297" x1="34.1919" y1="56.5681" x2="61.0531" y2="148.626" gradientUnits="userSpaceOnUse">
<stop stop-color="#F88821"/>
<stop offset="1" stop-color="#F82129"/>
</linearGradient>
</defs>
</svg>
