<svg width="74" height="73" viewBox="0 0 74 73" fill="none" xmlns="http://www.w3.org/2000/svg">
<g filter="url(#filter0_i_1936_25809)">
<path d="M69.4337 21.9443C73.0403 25.9769 74.2642 31.6072 72.6571 36.7731L69.4043 47.2294L65.9856 57.6327C64.2967 62.7723 60.0326 66.6475 54.7553 67.8387L44.0735 70.2498L33.3547 72.4907C28.0591 73.5979 22.5711 71.8427 18.9008 67.868L11.4718 59.8228L4.17168 51.6605C0.565065 47.628 -0.658859 41.9976 0.948203 36.8318L4.20104 26.3755L7.6197 15.9722C9.30867 10.8325 13.5727 6.95741 18.85 5.76621L29.5319 3.35511L40.2507 1.11413C45.5463 0.00697995 51.0342 1.7622 54.7045 5.7369L62.1335 13.7821L69.4337 21.9443Z" fill="url(#paint0_linear_1936_25809)"/>
<path d="M69.4337 21.9443C73.0403 25.9769 74.2642 31.6072 72.6571 36.7731L69.4043 47.2294L65.9856 57.6327C64.2967 62.7723 60.0326 66.6475 54.7553 67.8387L44.0735 70.2498L33.3547 72.4907C28.0591 73.5979 22.5711 71.8427 18.9008 67.868L11.4718 59.8228L4.17168 51.6605C0.565065 47.628 -0.658859 41.9976 0.948203 36.8318L4.20104 26.3755L7.6197 15.9722C9.30867 10.8325 13.5727 6.95741 18.85 5.76621L29.5319 3.35511L40.2507 1.11413C45.5463 0.00697995 51.0342 1.7622 54.7045 5.7369L62.1335 13.7821L69.4337 21.9443Z" fill="url(#paint1_linear_1936_25809)"/>
</g>
<defs>
<filter id="filter0_i_1936_25809" x="0.253906" y="0.788086" width="73.0977" height="72.0288" filterUnits="userSpaceOnUse" color-interpolation-filters="sRGB">
<feFlood flood-opacity="0" result="BackgroundImageFix"/>
<feBlend mode="normal" in="SourceGraphic" in2="BackgroundImageFix" result="shape"/>
<feColorMatrix in="SourceAlpha" type="matrix" values="0 0 0 0 0 0 0 0 0 0 0 0 0 0 0 0 0 0 127 0" result="hardAlpha"/>
<feOffset/>
<feGaussianBlur stdDeviation="7.65215"/>
<feComposite in2="hardAlpha" operator="arithmetic" k2="-1" k3="1"/>
<feColorMatrix type="matrix" values="0 0 0 0 1 0 0 0 0 1 0 0 0 0 1 0 0 0 0.51 0"/>
<feBlend mode="normal" in2="shape" result="effect1_innerShadow_1936_25809"/>
</filter>
<linearGradient id="paint0_linear_1936_25809" x1="29.2435" y1="2.0284" x2="-4.45251" y2="53.7268" gradientUnits="userSpaceOnUse">
<stop stop-color="#F86821"/>
<stop offset="1" stop-color="#F82129"/>
</linearGradient>
<linearGradient id="paint1_linear_1936_25809" x1="29.2435" y1="2.0284" x2="-4.45251" y2="53.7268" gradientUnits="userSpaceOnUse">
<stop stop-color="#F88821"/>
<stop offset="1" stop-color="#F82129"/>
</linearGradient>
</defs>
</svg>
