<svg width="347" height="537" viewBox="0 0 347 537" fill="none" xmlns="http://www.w3.org/2000/svg">
<g filter="url(#filter0_ii_1890_24560)">
<path d="M472.738 130.907C503.962 159.14 518.623 201.353 511.622 242.863L498.825 318.744L485.487 390.931C477.496 434.177 447.075 469.894 405.651 484.663L339.89 508.111L273.751 530.474C232.09 544.561 186.079 535.39 153.002 506.407L97.7902 458.029L40.7126 406.417C9.48889 378.183 -5.17222 335.97 1.82858 294.46L14.6262 218.579L27.9641 146.392C35.9547 103.146 66.3755 67.4295 107.8 52.6596L173.561 29.2121L239.7 6.84891C281.361 -7.23794 327.372 1.93259 360.449 30.9158L415.661 79.2944L472.738 130.907Z" fill="url(#paint0_linear_1890_24560)"/>
<path d="M472.738 130.907C503.962 159.14 518.623 201.353 511.622 242.863L498.825 318.744L485.487 390.931C477.496 434.177 447.075 469.894 405.651 484.663L339.89 508.111L273.751 530.474C232.09 544.561 186.079 535.39 153.002 506.407L97.7902 458.029L40.7126 406.417C9.48889 378.183 -5.17222 335.97 1.82858 294.46L14.6262 218.579L27.9641 146.392C35.9547 103.146 66.3755 67.4295 107.8 52.6596L173.561 29.2121L239.7 6.84891C281.361 -7.23794 327.372 1.93259 360.449 30.9158L415.661 79.2944L472.738 130.907Z" fill="url(#paint1_linear_1890_24560)"/>
</g>
<defs>
<filter id="filter0_ii_1890_24560" x="0.109375" y="0.350586" width="513.232" height="536.622" filterUnits="userSpaceOnUse" color-interpolation-filters="sRGB">
<feFlood flood-opacity="0" result="BackgroundImageFix"/>
<feBlend mode="normal" in="SourceGraphic" in2="BackgroundImageFix" result="shape"/>
<feColorMatrix in="SourceAlpha" type="matrix" values="0 0 0 0 0 0 0 0 0 0 0 0 0 0 0 0 0 0 127 0" result="hardAlpha"/>
<feOffset/>
<feGaussianBlur stdDeviation="61.3149"/>
<feComposite in2="hardAlpha" operator="arithmetic" k2="-1" k3="1"/>
<feColorMatrix type="matrix" values="0 0 0 0 1 0 0 0 0 1 0 0 0 0 1 0 0 0 0.51 0"/>
<feBlend mode="normal" in2="shape" result="effect1_innerShadow_1890_24560"/>
<feColorMatrix in="SourceAlpha" type="matrix" values="0 0 0 0 0 0 0 0 0 0 0 0 0 0 0 0 0 0 127 0" result="hardAlpha"/>
<feOffset/>
<feGaussianBlur stdDeviation="19.4569"/>
<feComposite in2="hardAlpha" operator="arithmetic" k2="-1" k3="1"/>
<feColorMatrix type="matrix" values="0 0 0 0 1 0 0 0 0 1 0 0 0 0 1 0 0 0 0.82 0"/>
<feBlend mode="normal" in2="effect1_innerShadow_1890_24560" result="effect2_innerShadow_1890_24560"/>
</filter>
<linearGradient id="paint0_linear_1890_24560" x1="170.263" y1="19.7142" x2="-34.8323" y2="419.317" gradientUnits="userSpaceOnUse">
<stop stop-color="#F86821"/>
<stop offset="1" stop-color="#F82129"/>
</linearGradient>
<linearGradient id="paint1_linear_1890_24560" x1="170.263" y1="19.7142" x2="-34.8323" y2="419.317" gradientUnits="userSpaceOnUse">
<stop stop-color="#F88821"/>
<stop offset="1" stop-color="#F82129"/>
</linearGradient>
</defs>
</svg>
