<svg width="392" height="175" viewBox="0 0 392 175" fill="none" xmlns="http://www.w3.org/2000/svg">
<g filter="url(#filter0_ii_1936_25406)">
<path d="M0.511156 159.118C-1.24316 128.782 13.0626 99.753 38.1887 82.6641L89.0463 48.0746L140.447 14.2979C165.842 -2.38934 198.134 -4.51451 225.497 8.70087L280.881 35.4501L335.833 63.0764C362.982 76.7251 380.968 103.629 383.205 133.933L387.731 195.272L391.282 256.675C393.037 287.01 378.731 316.039 353.605 333.128L302.747 367.718L251.346 401.494C225.952 418.181 193.659 420.307 166.297 407.091L110.913 380.342L55.9606 352.716C28.8117 339.067 10.825 312.164 8.58868 281.859L4.06206 220.521L0.511156 159.118Z" fill="url(#paint0_linear_1936_25406)"/>
<path d="M0.511156 159.118C-1.24316 128.782 13.0626 99.753 38.1887 82.6641L89.0463 48.0746L140.447 14.2979C165.842 -2.38934 198.134 -4.51451 225.497 8.70087L280.881 35.4501L335.833 63.0764C362.982 76.7251 380.968 103.629 383.205 133.933L387.731 195.272L391.282 256.675C393.037 287.01 378.731 316.039 353.605 333.128L302.747 367.718L251.346 401.494C225.952 418.181 193.659 420.307 166.297 407.091L110.913 380.342L55.9606 352.716C28.8117 339.067 10.825 312.164 8.58868 281.859L4.06206 220.521L0.511156 159.118Z" fill="url(#paint1_linear_1936_25406)"/>
</g>
<defs>
<filter id="filter0_ii_1936_25406" x="0.367188" y="0.0991211" width="391.061" height="415.594" filterUnits="userSpaceOnUse" color-interpolation-filters="sRGB">
<feFlood flood-opacity="0" result="BackgroundImageFix"/>
<feBlend mode="normal" in="SourceGraphic" in2="BackgroundImageFix" result="shape"/>
<feColorMatrix in="SourceAlpha" type="matrix" values="0 0 0 0 0 0 0 0 0 0 0 0 0 0 0 0 0 0 127 0" result="hardAlpha"/>
<feOffset/>
<feGaussianBlur stdDeviation="42.9795"/>
<feComposite in2="hardAlpha" operator="arithmetic" k2="-1" k3="1"/>
<feColorMatrix type="matrix" values="0 0 0 0 1 0 0 0 0 1 0 0 0 0 1 0 0 0 0.51 0"/>
<feBlend mode="normal" in2="shape" result="effect1_innerShadow_1936_25406"/>
<feColorMatrix in="SourceAlpha" type="matrix" values="0 0 0 0 0 0 0 0 0 0 0 0 0 0 0 0 0 0 127 0" result="hardAlpha"/>
<feOffset/>
<feGaussianBlur stdDeviation="13.6386"/>
<feComposite in2="hardAlpha" operator="arithmetic" k2="-1" k3="1"/>
<feColorMatrix type="matrix" values="0 0 0 0 1 0 0 0 0 1 0 0 0 0 1 0 0 0 0.82 0"/>
<feBlend mode="normal" in2="effect1_innerShadow_1936_25406" result="effect2_innerShadow_1936_25406"/>
</filter>
<linearGradient id="paint0_linear_1936_25406" x1="107.542" y1="387.182" x2="436.416" y2="277.745" gradientUnits="userSpaceOnUse">
<stop stop-color="#F86821"/>
<stop offset="1" stop-color="#F82129"/>
</linearGradient>
<linearGradient id="paint1_linear_1936_25406" x1="107.542" y1="387.182" x2="436.416" y2="277.745" gradientUnits="userSpaceOnUse">
<stop stop-color="#F88821"/>
<stop offset="1" stop-color="#F82129"/>
</linearGradient>
</defs>
</svg>
