<svg width="59" height="90" viewBox="0 0 59 90" fill="none" xmlns="http://www.w3.org/2000/svg">
<g filter="url(#filter0_ii_1999_26969)">
<path d="M49.5758 0.573364C56.1296 -0.896136 62.9737 1.18411 67.6012 6.05217L76.9677 15.9056L86.1763 25.9067C90.7259 30.8477 92.3463 37.8149 90.4442 44.2565L86.5942 57.2948L82.5373 70.2703C80.533 76.6808 75.3095 81.5678 68.7799 83.1413L55.5633 86.3262L42.2977 89.3006C35.7439 90.7701 28.8999 88.6899 24.2724 83.8218L14.9059 73.9684L5.69723 63.9673C1.14771 59.0263 -0.472758 52.0591 1.42935 45.6175L5.27942 32.5792L9.33627 19.6037C11.3405 13.1932 16.5641 8.3062 23.0937 6.7327L36.3103 3.54777L49.5758 0.573364Z" fill="url(#paint0_linear_1999_26969)"/>
<path d="M49.5758 0.573364C56.1296 -0.896136 62.9737 1.18411 67.6012 6.05217L76.9677 15.9056L86.1763 25.9067C90.7259 30.8477 92.3463 37.8149 90.4442 44.2565L86.5942 57.2948L82.5373 70.2703C80.533 76.6808 75.3095 81.5678 68.7799 83.1413L55.5633 86.3262L42.2977 89.3006C35.7439 90.7701 28.8999 88.6899 24.2724 83.8218L14.9059 73.9684L5.69723 63.9673C1.14771 59.0263 -0.472758 52.0591 1.42935 45.6175L5.27942 32.5792L9.33627 19.6037C11.3405 13.1932 16.5641 8.3062 23.0937 6.7327L36.3103 3.54777L49.5758 0.573364Z" fill="url(#paint1_linear_1999_26969)"/>
</g>
<defs>
<filter id="filter0_ii_1999_26969" x="0.646973" y="0.110352" width="90.5797" height="89.6533" filterUnits="userSpaceOnUse" color-interpolation-filters="sRGB">
<feFlood flood-opacity="0" result="BackgroundImageFix"/>
<feBlend mode="normal" in="SourceGraphic" in2="BackgroundImageFix" result="shape"/>
<feColorMatrix in="SourceAlpha" type="matrix" values="0 0 0 0 0 0 0 0 0 0 0 0 0 0 0 0 0 0 127 0" result="hardAlpha"/>
<feOffset/>
<feGaussianBlur stdDeviation="9.5"/>
<feComposite in2="hardAlpha" operator="arithmetic" k2="-1" k3="1"/>
<feColorMatrix type="matrix" values="0 0 0 0 1 0 0 0 0 1 0 0 0 0 1 0 0 0 0.31 0"/>
<feBlend mode="normal" in2="shape" result="effect1_innerShadow_1999_26969"/>
<feColorMatrix in="SourceAlpha" type="matrix" values="0 0 0 0 0 0 0 0 0 0 0 0 0 0 0 0 0 0 127 0" result="hardAlpha"/>
<feOffset/>
<feGaussianBlur stdDeviation="10.3312"/>
<feComposite in2="hardAlpha" operator="arithmetic" k2="-1" k3="1"/>
<feColorMatrix type="matrix" values="0 0 0 0 1 0 0 0 0 1 0 0 0 0 1 0 0 0 0.82 0"/>
<feBlend mode="normal" in2="effect1_innerShadow_1999_26969" result="effect2_innerShadow_1999_26969"/>
</filter>
<linearGradient id="paint0_linear_1999_26969" x1="3.66671" y1="32.089" x2="39.319" y2="99.8998" gradientUnits="userSpaceOnUse">
<stop stop-color="#F86821"/>
<stop offset="1" stop-color="#F82129"/>
</linearGradient>
<linearGradient id="paint1_linear_1999_26969" x1="3.66671" y1="32.089" x2="39.319" y2="99.8998" gradientUnits="userSpaceOnUse">
<stop stop-color="#F88821"/>
<stop offset="1" stop-color="#F82129"/>
</linearGradient>
</defs>
</svg>
