<svg width="252" height="242" viewBox="0 0 252 242" fill="none" xmlns="http://www.w3.org/2000/svg">
<g filter="url(#filter0_i_1957_25261)">
<path d="M149.592 1.24023C167.915 -0.767657 185.947 6.99473 197.083 21.6843L219.622 51.4173L241.686 81.5049C252.587 96.3696 254.88 115.867 247.727 132.855L233.247 167.241L218.222 201.393C210.799 218.266 195.061 230.001 176.772 232.3L139.752 236.953L102.664 241.017C84.3402 243.025 66.3084 235.262 55.1728 220.573L32.6334 190.84L10.5694 160.752C-0.331239 145.888 -2.62472 126.39 4.529 109.402L19.0088 75.0157L34.0335 40.8639C41.4563 23.9914 57.1947 12.2566 75.4839 9.95763L112.503 5.30438L149.592 1.24023Z" fill="url(#paint0_linear_1957_25261)"/>
<path d="M149.592 1.24023C167.915 -0.767657 185.947 6.99473 197.083 21.6843L219.622 51.4173L241.686 81.5049C252.587 96.3696 254.88 115.867 247.727 132.855L233.247 167.241L218.222 201.393C210.799 218.266 195.061 230.001 176.772 232.3L139.752 236.953L102.664 241.017C84.3402 243.025 66.3084 235.262 55.1728 220.573L32.6334 190.84L10.5694 160.752C-0.331239 145.888 -2.62472 126.39 4.529 109.402L19.0088 75.0157L34.0335 40.8639C41.4563 23.9914 57.1947 12.2566 75.4839 9.95763L112.503 5.30438L149.592 1.24023Z" fill="url(#paint1_linear_1957_25261)"/>
</g>
<defs>
<filter id="filter0_i_1957_25261" x="0.419922" y="0.927734" width="251.416" height="240.402" filterUnits="userSpaceOnUse" color-interpolation-filters="sRGB">
<feFlood flood-opacity="0" result="BackgroundImageFix"/>
<feBlend mode="normal" in="SourceGraphic" in2="BackgroundImageFix" result="shape"/>
<feColorMatrix in="SourceAlpha" type="matrix" values="0 0 0 0 0 0 0 0 0 0 0 0 0 0 0 0 0 0 127 0" result="hardAlpha"/>
<feOffset/>
<feGaussianBlur stdDeviation="26.0723"/>
<feComposite in2="hardAlpha" operator="arithmetic" k2="-1" k3="1"/>
<feColorMatrix type="matrix" values="0 0 0 0 1 0 0 0 0 1 0 0 0 0 1 0 0 0 0.51 0"/>
<feBlend mode="normal" in2="shape" result="effect1_innerShadow_1957_25261"/>
</filter>
<linearGradient id="paint0_linear_1957_25261" x1="14.7598" y1="73.1866" x2="91.3046" y2="269.016" gradientUnits="userSpaceOnUse">
<stop stop-color="#F86821"/>
<stop offset="1" stop-color="#F82129"/>
</linearGradient>
<linearGradient id="paint1_linear_1957_25261" x1="14.7598" y1="73.1866" x2="91.3046" y2="269.016" gradientUnits="userSpaceOnUse">
<stop stop-color="#F88821"/>
<stop offset="1" stop-color="#F82129"/>
</linearGradient>
</defs>
</svg>
