<svg width="392" height="203" viewBox="0 0 392 203" fill="none" xmlns="http://www.w3.org/2000/svg">
<g filter="url(#filter0_ii_1894_25459)">
<path d="M0.511156 159.118C-1.24316 128.782 13.0626 99.7535 38.1887 82.6646L89.0463 48.0751L140.447 14.2984C165.842 -2.38885 198.134 -4.51402 225.497 8.70136L280.881 35.4506L335.833 63.0769C362.982 76.7256 380.968 103.629 383.205 133.933L387.731 195.272L391.282 256.675C393.037 287.011 378.731 316.04 353.605 333.128L302.747 367.718L251.346 401.495C225.952 418.182 193.659 420.307 166.297 407.092L110.913 380.342L55.9606 352.716C28.8117 339.067 10.825 312.164 8.58868 281.86L4.06206 220.521L0.511156 159.118Z" fill="url(#paint0_linear_1894_25459)"/>
<path d="M0.511156 159.118C-1.24316 128.782 13.0626 99.7535 38.1887 82.6646L89.0463 48.0751L140.447 14.2984C165.842 -2.38885 198.134 -4.51402 225.497 8.70136L280.881 35.4506L335.833 63.0769C362.982 76.7256 380.968 103.629 383.205 133.933L387.731 195.272L391.282 256.675C393.037 287.011 378.731 316.04 353.605 333.128L302.747 367.718L251.346 401.495C225.952 418.182 193.659 420.307 166.297 407.092L110.913 380.342L55.9606 352.716C28.8117 339.067 10.825 312.164 8.58868 281.86L4.06206 220.521L0.511156 159.118Z" fill="url(#paint1_linear_1894_25459)"/>
</g>
<defs>
<filter id="filter0_ii_1894_25459" x="0.367188" y="0.0996094" width="391.061" height="415.594" filterUnits="userSpaceOnUse" color-interpolation-filters="sRGB">
<feFlood flood-opacity="0" result="BackgroundImageFix"/>
<feBlend mode="normal" in="SourceGraphic" in2="BackgroundImageFix" result="shape"/>
<feColorMatrix in="SourceAlpha" type="matrix" values="0 0 0 0 0 0 0 0 0 0 0 0 0 0 0 0 0 0 127 0" result="hardAlpha"/>
<feOffset/>
<feGaussianBlur stdDeviation="42.9795"/>
<feComposite in2="hardAlpha" operator="arithmetic" k2="-1" k3="1"/>
<feColorMatrix type="matrix" values="0 0 0 0 1 0 0 0 0 1 0 0 0 0 1 0 0 0 0.51 0"/>
<feBlend mode="normal" in2="shape" result="effect1_innerShadow_1894_25459"/>
<feColorMatrix in="SourceAlpha" type="matrix" values="0 0 0 0 0 0 0 0 0 0 0 0 0 0 0 0 0 0 127 0" result="hardAlpha"/>
<feOffset/>
<feGaussianBlur stdDeviation="13.6386"/>
<feComposite in2="hardAlpha" operator="arithmetic" k2="-1" k3="1"/>
<feColorMatrix type="matrix" values="0 0 0 0 1 0 0 0 0 1 0 0 0 0 1 0 0 0 0.82 0"/>
<feBlend mode="normal" in2="effect1_innerShadow_1894_25459" result="effect2_innerShadow_1894_25459"/>
</filter>
<linearGradient id="paint0_linear_1894_25459" x1="107.542" y1="387.183" x2="436.416" y2="277.746" gradientUnits="userSpaceOnUse">
<stop stop-color="#F86821"/>
<stop offset="1" stop-color="#F82129"/>
</linearGradient>
<linearGradient id="paint1_linear_1894_25459" x1="107.542" y1="387.183" x2="436.416" y2="277.746" gradientUnits="userSpaceOnUse">
<stop stop-color="#F88821"/>
<stop offset="1" stop-color="#F82129"/>
</linearGradient>
</defs>
</svg>
