<svg width="131" height="131" viewBox="0 0 131 131" fill="none" xmlns="http://www.w3.org/2000/svg">
<g filter="url(#filter0_i_1957_25262)">
<path d="M68.1909 1.08455C77.5535 -1.35237 87.5081 1.30658 94.4085 8.08754L108.376 21.8128L122.123 35.7584C128.914 42.6482 131.589 52.5986 129.167 61.965L124.264 80.9235L119.06 99.8017C116.489 109.128 109.209 116.42 99.8866 119.005L81.0166 124.239L62.0658 129.171C52.7032 131.608 42.7486 128.949 35.8482 122.168L21.8811 108.443L8.13396 94.4972C1.34222 87.6074 -1.33233 77.6571 1.08994 68.2906L5.99285 49.3321L11.1965 30.4539C13.7674 21.1272 21.0474 13.8358 30.3701 11.2503L49.2401 6.01713L68.1909 1.08455Z" fill="url(#paint0_linear_1957_25262)"/>
<path d="M68.1909 1.08455C77.5535 -1.35237 87.5081 1.30658 94.4085 8.08754L108.376 21.8128L122.123 35.7584C128.914 42.6482 131.589 52.5986 129.167 61.965L124.264 80.9235L119.06 99.8017C116.489 109.128 109.209 116.42 99.8866 119.005L81.0166 124.239L62.0658 129.171C52.7032 131.608 42.7486 128.949 35.8482 122.168L21.8811 108.443L8.13396 94.4972C1.34222 87.6074 -1.33233 77.6571 1.08994 68.2906L5.99285 49.3321L11.1965 30.4539C13.7674 21.1272 21.0474 13.8358 30.3701 11.2503L49.2401 6.01713L68.1909 1.08455Z" fill="url(#paint1_linear_1957_25262)"/>
</g>
<defs>
<filter id="filter0_i_1957_25262" x="0.212891" y="0.196777" width="129.83" height="129.862" filterUnits="userSpaceOnUse" color-interpolation-filters="sRGB">
<feFlood flood-opacity="0" result="BackgroundImageFix"/>
<feBlend mode="normal" in="SourceGraphic" in2="BackgroundImageFix" result="shape"/>
<feColorMatrix in="SourceAlpha" type="matrix" values="0 0 0 0 0 0 0 0 0 0 0 0 0 0 0 0 0 0 127 0" result="hardAlpha"/>
<feOffset/>
<feGaussianBlur stdDeviation="13.6839"/>
<feComposite in2="hardAlpha" operator="arithmetic" k2="-1" k3="1"/>
<feColorMatrix type="matrix" values="0 0 0 0 1 0 0 0 0 1 0 0 0 0 1 0 0 0 0.51 0"/>
<feBlend mode="normal" in2="shape" result="effect1_innerShadow_1957_25262"/>
</filter>
<linearGradient id="paint0_linear_1957_25262" x1="3.64719" y1="48.7056" x2="58.2975" y2="144.575" gradientUnits="userSpaceOnUse">
<stop stop-color="#F86821"/>
<stop offset="1" stop-color="#F82129"/>
</linearGradient>
<linearGradient id="paint1_linear_1957_25262" x1="3.64719" y1="48.7056" x2="58.2975" y2="144.575" gradientUnits="userSpaceOnUse">
<stop stop-color="#F88821"/>
<stop offset="1" stop-color="#F82129"/>
</linearGradient>
</defs>
</svg>
