<svg width="804" height="469" viewBox="0 0 804 469" fill="none" xmlns="http://www.w3.org/2000/svg">
<g filter="url(#filter0_i_1816_21835)">
<path d="M437.872 -678.814C499.362 -713.667 574.638 -713.667 636.128 -678.814L805.395 -582.874L973.115 -484.255C1034.04 -448.429 1071.68 -383.238 1072.24 -312.559L1073.79 -118L1072.24 76.5594C1071.68 147.238 1034.04 212.429 973.115 248.255L805.395 346.874L636.128 442.814C574.638 477.667 499.362 477.667 437.872 442.814L268.605 346.874L100.885 248.255C39.9564 212.429 2.31845 147.238 1.75661 76.5594L0.210022 -118L1.75661 -312.559C2.31845 -383.238 39.9564 -448.429 100.885 -484.255L268.605 -582.874L437.872 -678.814Z" fill="#7B48E8"/>
</g>
<defs>
<filter id="filter0_i_1816_21835" x="0.210022" y="-704.954" width="1073.58" height="1173.91" filterUnits="userSpaceOnUse" color-interpolation-filters="sRGB">
<feFlood flood-opacity="0" result="BackgroundImageFix"/>
<feBlend mode="normal" in="SourceGraphic" in2="BackgroundImageFix" result="shape"/>
<feColorMatrix in="SourceAlpha" type="matrix" values="0 0 0 0 0 0 0 0 0 0 0 0 0 0 0 0 0 0 127 0" result="hardAlpha"/>
<feOffset/>
<feGaussianBlur stdDeviation="19.4569"/>
<feComposite in2="hardAlpha" operator="arithmetic" k2="-1" k3="1"/>
<feColorMatrix type="matrix" values="0 0 0 0 1 0 0 0 0 1 0 0 0 0 1 0 0 0 0.82 0"/>
<feBlend mode="normal" in2="shape" result="effect1_innerShadow_1816_21835"/>
</filter>
</defs>
</svg>
