<svg width="660" height="487" viewBox="0 0 660 487" fill="none" xmlns="http://www.w3.org/2000/svg">
<g filter="url(#filter0_i_1825_23568)">
<path d="M437.872 -660.814C499.362 -695.667 574.638 -695.667 636.128 -660.814L805.395 -564.874L973.115 -466.255C1034.04 -430.429 1071.68 -365.238 1072.24 -294.559L1073.79 -100L1072.24 94.5594C1071.68 165.238 1034.04 230.429 973.115 266.255L805.395 364.874L636.128 460.814C574.638 495.667 499.362 495.667 437.872 460.814L268.605 364.874L100.885 266.255C39.9564 230.429 2.31845 165.238 1.75661 94.5594L0.210022 -100L1.75661 -294.559C2.31845 -365.238 39.9564 -430.429 100.885 -466.255L268.605 -564.874L437.872 -660.814Z" fill="url(#paint0_linear_1825_23568)"/>
<path d="M437.872 -660.814C499.362 -695.667 574.638 -695.667 636.128 -660.814L805.395 -564.874L973.115 -466.255C1034.04 -430.429 1071.68 -365.238 1072.24 -294.559L1073.79 -100L1072.24 94.5594C1071.68 165.238 1034.04 230.429 973.115 266.255L805.395 364.874L636.128 460.814C574.638 495.667 499.362 495.667 437.872 460.814L268.605 364.874L100.885 266.255C39.9564 230.429 2.31845 165.238 1.75661 94.5594L0.210022 -100L1.75661 -294.559C2.31845 -365.238 39.9564 -430.429 100.885 -466.255L268.605 -564.874L437.872 -660.814Z" fill="url(#paint1_linear_1825_23568)"/>
</g>
<defs>
<filter id="filter0_i_1825_23568" x="0.209961" y="-686.954" width="1073.58" height="1173.91" filterUnits="userSpaceOnUse" color-interpolation-filters="sRGB">
<feFlood flood-opacity="0" result="BackgroundImageFix"/>
<feBlend mode="normal" in="SourceGraphic" in2="BackgroundImageFix" result="shape"/>
<feColorMatrix in="SourceAlpha" type="matrix" values="0 0 0 0 0 0 0 0 0 0 0 0 0 0 0 0 0 0 127 0" result="hardAlpha"/>
<feOffset/>
<feGaussianBlur stdDeviation="19.4569"/>
<feComposite in2="hardAlpha" operator="arithmetic" k2="-1" k3="1"/>
<feColorMatrix type="matrix" values="0 0 0 0 1 0 0 0 0 1 0 0 0 0 1 0 0 0 0.82 0"/>
<feBlend mode="normal" in2="shape" result="effect1_innerShadow_1825_23568"/>
</filter>
<linearGradient id="paint0_linear_1825_23568" x1="-21.0822" y1="-100" x2="658.927" y2="588.601" gradientUnits="userSpaceOnUse">
<stop stop-color="#F86821"/>
<stop offset="1" stop-color="#F82129"/>
</linearGradient>
<linearGradient id="paint1_linear_1825_23568" x1="484" y1="517" x2="971.5" y2="47.9999" gradientUnits="userSpaceOnUse">
<stop stop-color="#F88821"/>
<stop offset="1" stop-color="#F82129"/>
</linearGradient>
</defs>
</svg>
