<svg width="269" height="647" viewBox="0 0 269 647" fill="none" xmlns="http://www.w3.org/2000/svg">
<path d="M0.895166 430.33C1.12783 469.244 21.7793 505.177 55.2857 524.968L147.52 579.446L240.608 632.451C274.425 651.707 315.87 651.788 349.762 632.666L443.059 580.028L535.507 525.914C569.091 506.255 589.884 470.404 590.27 431.492L591.332 324.375L590.692 217.256C590.459 178.342 569.808 142.409 536.301 122.618L444.067 68.1401L350.979 15.1349C317.162 -4.12049 275.717 -4.20215 241.825 14.9199L148.528 67.5578L56.0803 121.672C22.4962 141.331 1.70327 177.182 1.31726 216.094L0.254713 323.211L0.895166 430.33Z" fill="url(#paint0_linear_978_4120)"/>
<path d="M0.895166 430.33C1.12783 469.244 21.7793 505.177 55.2857 524.968L147.52 579.446L240.608 632.451C274.425 651.707 315.87 651.788 349.762 632.666L443.059 580.028L535.507 525.914C569.091 506.255 589.884 470.404 590.27 431.492L591.332 324.375L590.692 217.256C590.459 178.342 569.808 142.409 536.301 122.618L444.067 68.1401L350.979 15.1349C317.162 -4.12049 275.717 -4.20215 241.825 14.9199L148.528 67.5578L56.0803 121.672C22.4962 141.331 1.70327 177.182 1.31726 216.094L0.254713 323.211L0.895166 430.33Z" fill="url(#paint1_linear_978_4120)"/>
<defs>
<linearGradient id="paint0_linear_978_4120" x1="142.687" y1="57.394" x2="657.945" y2="193.081" gradientUnits="userSpaceOnUse">
<stop stop-color="#F86821"/>
<stop offset="1" stop-color="#F82129"/>
</linearGradient>
<linearGradient id="paint1_linear_978_4120" x1="142.687" y1="57.394" x2="657.945" y2="193.081" gradientUnits="userSpaceOnUse">
<stop stop-color="#F88821"/>
<stop offset="1" stop-color="#F82129"/>
</linearGradient>
</defs>
</svg>
